<svg width="326" height="288" viewBox="0 0 326 288" fill="none" xmlns="http://www.w3.org/2000/svg">
<path d="M171 11C157.214 32.007 142.74 52.5418 129.111 73.6667C118.775 89.6875 110.648 107.048 101.778 123.889C94.648 137.425 85.9399 149.927 78.6111 163.333C72.7098 174.128 66.333 184.685 61 195.778C57.658 202.729 53.211 210.199 52.2222 218C51.1957 226.098 52 234.781 52 242.944C52 250.003 53.5014 250.971 59.9444 253.944C63.8324 255.739 68.4951 255 72.6667 255C92.1906 255 110.581 249.516 129.667 245.778C158.5 240.131 187.175 232.634 214.444 221.556C232.201 214.342 251.357 207.35 267.833 197.5C287.815 185.555 306.211 172.461 319.556 153C324.503 145.785 325.377 143.299 319.778 137C311.961 128.206 303.372 123.675 292.278 119.944C274.716 114.039 257.516 108.084 239.389 104.056C198.768 95.0286 157.341 90.5652 116.222 84.5556C99.5795 82.1232 83.1593 79.2172 66.3889 77.8889C57.3668 77.1743 48.6858 75 39.6111 75C36.6904 75 37.9094 87.9919 38 90C38.5893 103.064 46.3831 115.428 55.7778 124.111C63.7142 131.446 74.3905 136.922 83.6111 142.5C97.5029 150.904 111.975 158.319 126 166.5C155.623 183.78 185.614 201.4 216.222 216.889C225.91 221.791 235.836 226.483 245.944 230.444C255.758 234.29 265.071 239.616 275.056 242.944C282.477 245.418 290.169 247.216 297.778 249C300.659 249.676 313.39 254.346 315.889 251.222C318.416 248.063 319.146 243.402 321.778 240C325.843 234.745 324.379 225.246 323.333 219.222C319.724 198.435 301.106 181.551 289.889 164.444C277.855 146.092 264.24 128.686 251.556 110.778C239.514 93.7775 225.873 78.205 214 61.0556C207.627 51.8496 200.122 43.1151 192 35.4444C187.685 31.3693 181.826 28.7147 177.611 24.5C174.838 21.7266 169.93 21.1096 166 22.4444C154.39 26.3875 143.46 41.3939 135.778 50.2222C125.655 61.855 116.261 74.0481 107.389 86.6667C98.2199 99.707 91.9788 114.397 83.2222 127.722C74.6678 140.74 70.5162 155.928 66.4444 170.778C63.8182 180.356 73.8218 183.753 81.2778 187.167C97.2924 194.499 115.059 198.205 131.889 203.222C147.321 207.823 162.068 213.027 177 219C194.919 226.168 213.742 232.929 229.444 244.444C235.641 248.988 231.111 260.378 225.778 264C218.153 269.177 208.04 271.379 199.389 274.111C191.57 276.58 184.115 280.101 176.056 281.778C165.498 283.974 154.476 284.588 143.722 284.889C115.576 285.676 82.1601 289.113 62.1111 265.556C57.1179 259.688 53.3244 253.37 50 246.444C46.5976 239.356 49.6689 231.23 52 224.111C54.2033 217.382 60.169 214.882 66.3889 212.444C81.892 206.369 97.9386 206.27 114.333 204.5C136.887 202.065 159.67 202.077 182 197.778C203.427 193.652 224.571 186.548 244.111 176.778C260.492 168.587 263 157.025 263 139.889C263 128.488 261.236 118.841 259.056 107.722C255.926 91.7632 253.371 75.6412 249 59.9444C246.584 51.2682 243.121 43.0105 241 34.2222C240.571 32.444 239.162 23.4897 236.889 23.2222C228.165 22.1958 217.134 26.8359 208.444 28.0556C185.688 31.2495 163.123 32 140.167 32C121.196 32 102.191 31.6582 83.2222 32C82.5446 32.0122 78.975 31.6735 80.8333 33.3889C86.127 38.2753 94.2868 41.3801 100.667 44.4444C124.711 55.9931 151.699 61.1777 177.111 68.8889C215.822 80.6357 253.958 93.0565 288.889 113.889C297.59 119.078 307.745 124.442 312 134.111C315.679 142.473 319.649 150.313 319.944 159.611C320.183 167.124 321.443 176.634 319.111 183.889C315.792 194.214 308.957 205.785 299.556 211.556C286.405 219.627 268.393 218.797 253.611 218.944C216.423 219.316 179.875 216.772 143.944 206.667C126.446 201.745 111.135 180.24 126.889 164.111C144.062 146.529 171.059 140.65 194.222 136.611C223.336 131.534 253.294 128.662 280.611 116.556C288.942 112.864 297.12 108.345 299.778 99C302.122 90.7556 302 81.9296 302 73.4444C302 56.7996 280.16 53.2495 267.222 49.4444C251.708 44.8815 236.115 40.575 220.611 36C215.612 34.5248 209.932 32.0281 204.889 31.1111C200.049 30.2311 194.902 34.0997 191.556 37.1111C183.317 44.5259 175.812 53.1089 169.556 62.2222C156.76 80.8594 140.646 99.4347 140.056 123.056C139.795 133.474 139.175 143.479 144.889 152.667C152.426 164.785 159.974 169.171 174 169.778C189.607 170.453 204.384 165.281 219.222 161.222C233.495 157.319 252.875 156.019 264.722 146.222C271.264 140.813 272.806 129.76 273.556 121.778C275.288 103.335 275.078 83.0591 273.111 64.6667C271.204 46.8273 268.161 28.9281 265.556 11.1667C264.658 5.04432 265.331 1.54646 258.556 2.11111C243.418 3.37256 229.261 11.9586 215.333 17.3333C196.69 24.528 177.99 31.3371 159.5 38.9444C139.729 47.0789 119.472 53.8805 99.7778 62.2222C77.9395 71.4722 56.1777 79.1423 33.4444 85.8889C25.3799 88.2822 -4.82211 93.9187 3.22222 108.667C18.6051 136.869 46.4048 157.718 74.2222 172.444C114.823 193.939 159.945 205.743 201.5 225.222C205.728 227.204 208.867 230.271 207.556 235.444C203.717 250.587 194.569 257 179 257" stroke="black" stroke-width="3" stroke-linecap="round"/>
</svg>
